<?xml version="1.0" standalone="no"?>
<!DOCTYPE svg PUBLIC "-//W3C//DTD SVG 20010904//EN"
 "http://www.w3.org/TR/2001/REC-SVG-20010904/DTD/svg10.dtd">
<svg version="1.0" xmlns="http://www.w3.org/2000/svg"
 width="980.000000pt" height="922.000000pt" viewBox="0 0 980.000000 922.000000"
 preserveAspectRatio="xMidYMid meet">

<g transform="translate(0.000000,922.000000) scale(0.100000,-0.100000)"
fill="#31263E" stroke="none">
<path d="M7444 8289 l-920 -920 -190 35 c-469 88 -871 126 -1322 126 -1419 0
-2767 -428 -3916 -1244 -249 -177 -604 -474 -775 -649 l-64 -66 29 -38 c16
-21 200 -211 410 -423 l382 -385 104 100 c468 452 969 788 1573 1053 488 214
1093 381 1560 432 320 34 963 53 1085 31 39 -7 70 -16 70 -19 0 -4 -180 -187
-399 -406 l-399 -399 -184 -24 c-787 -101 -1457 -339 -2053 -730 -223 -147
-549 -408 -697 -560 l-68 -68 405 -405 405 -405 -1240 -1240 -1240 -1240 420
-420 420 -420 4185 4185 4185 4185 -417 417 c-230 230 -420 418 -423 418 -3 0
-419 -414 -926 -921z"/>
<path d="M8012 6174 l-417 -415 27 -22 c15 -12 90 -60 165 -107 464 -283 662
-428 1047 -769 l139 -123 414 413 414 414 -113 108 c-297 284 -617 535 -978
768 -177 114 -240 149 -265 149 -9 0 -204 -187 -433 -416z"/>
<path d="M6503 4666 c-244 -245 -443 -449 -443 -453 0 -5 82 -39 181 -77 463
-177 818 -392 1178 -715 l125 -112 418 418 419 418 -63 58 c-293 270 -637 525
-948 702 -124 71 -392 205 -410 205 -8 0 -214 -200 -457 -444z"/>
<path d="M5303 3429 c-10 -4 -54 -37 -98 -75 -92 -78 -949 -927 -1187 -1177
l-160 -167 55 -63 c167 -190 1092 -1167 1105 -1167 10 0 259 254 468 475 316
336 648 679 1023 1058 217 218 371 381 365 385 -143 126 -193 168 -261 220
-291 221 -650 387 -1023 473 -144 33 -260 48 -287 38z"/>
</g>
</svg>
